<?xml version="1.0" encoding="UTF-8"?> <svg xmlns="http://www.w3.org/2000/svg" width="108" height="138" viewBox="0 0 108 138" fill="none"> <path d="M104.325 136C105.981 119.587 108.233 99.2346 100.917 83.8844C91.9873 65.1505 76.4961 49.8541 59.582 38.3375C51.0522 32.5297 42.1911 27.1386 33.1257 22.2143C30.2244 20.6383 24.6877 19.0139 22.5215 16.297C18.952 11.8199 28.8576 25.9772 30.7452 31.3888C32.6975 36.9859 32.2973 39.5701 27.9318 33.2888C22.1276 24.9375 14.3298 18.1152 7.91378 10.1625C6.03385 7.83237 3.41652 6.00798 2.17888 3.2138C0.672151 -0.187878 9.14651 4.59128 10.2943 5.05956C22.8769 10.193 34.4805 13.4425 47.8417 15.8084" stroke="black" stroke-width="3" stroke-linecap="round"></path> </svg> 