<svg height="1em" width="1em" version="1.1" id="Layer_1" xmlns="http://www.w3.org/2000/svg"
    xmlns:xlink="http://www.w3.org/1999/xlink" viewBox="0 0 473.972 473.972" xml:space="preserve">
    <path style="fill: #9f77aa" d="M0,236.99C0,106.095,106.098,0,236.99,0c130.884,0,236.982,106.095,236.982,236.99
		c0,130.884-106.098,236.982-236.982,236.982C106.102,473.972,0,367.874,0,236.99z" />
    <path style="fill: #414141" d="M334.976,203.781h-54.088c-5.957,0-8.296,12.681-8.296,17.665l2.967,82.985l0.183,65.246
		c0,0.812,3.996,1.171,4.034,1.916c0.161,3.85,0.958,5.283,4.486,5.283h7.959c3.457,0,5.145-1.317,5.643-5.044
		c0.109-0.812,2.223-1.792,2.223-2.683c0,0-0.546-64.681-0.535-65.238c1.014-33.661,2.492-68.157,4.296-68.703
		c3.543-1.066,5.512-1.066,8.165,0c1.358,0.546,2.859,35.326,3.996,69.122c0.015,0.535-0.221,64.812-0.221,64.812
		c0,0.827,2.099,1.74,2.193,2.5c0.46,3.82,2.148,5.231,5.665,5.231h7.951c3.682,0,4.393-1.673,4.516-5.774
		c0.015-0.591,4.011-0.789,4.011-1.426l0.198-65.507l2.945-82.72C343.272,216.459,340.94,203.781,334.976,203.781z" />
    <path style="fill: #30302f" d="M350.755,213.259l-42.855,2.178l-42.791-2.14c-0.146,0.775-0.236,1.482-0.236,2.084l0.131,3.222
		l42.724,1.609l43.124-1.643l0.138-3.188C350.998,214.771,350.909,214.056,350.755,213.259z" />
    <g>
        <path style="fill: #353535" d="M259.703,116.994l1.785,102.184c0,3.573,9.822,3.873,33.923,3.873V97.088
			C271.104,97.619,259.703,97.709,259.703,116.994z" />
        <path style="fill: #353535" d="M321.128,97.103v125.78c24.108,0,32.857-0.849,32.857-3.704l1.785-102.184
			C355.769,99.85,344.918,97.732,321.128,97.103z" />
    </g>
    <path style="fill: #d0e8d0" d="M308.275,104.763c-5.384,0-12.864-7.674-12.864-7.674v119l25.717-0.168V97.103
		C320.536,96.512,313.659,104.763,308.275,104.763z" />
    <path style="fill: #7fcdcc" d="M308.275,104.763c-5.384,0-12.864-7.674-12.864-7.674v4.977c0,0,7.476,7.674,12.864,7.674
		s12.857-7.659,12.857-7.659v-4.977C320.536,96.512,313.659,104.763,308.275,104.763z" />
    <g>
        <path style="fill: #59a29f" d="M311.766,110.682c0,0,2.507-7.244,1.272-7.921c-2.425-0.849-7.431-0.775-9.287,0
			c-1.863,0.775,1.403,7.921,1.403,7.921H311.766z" />
        <path style="fill: #7fcdcc" d="M308.619,102.128c-1.804,0-3.925,0.228-4.868,0.629c-1.863,0.775,1.403,7.921,1.403,7.921h3.42
			L308.619,102.128z" />
        <path style="fill: #63aaa5" d="M305.176,110.499l-6.387,65.567l9.661,8.026l8.917-8.026l-5.605-65.567H305.176z" />
        <path style="fill: #97d6d5"
            d="M305.176,110.499l-6.387,65.567l9.661,8.026l0.079-73.593L305.176,110.499L305.176,110.499z" />
    </g>
    <g>
        <path style="fill: #30302f" d="M339.122,374.224c0,2.761-5.197,2.814-11.607,2.814c-6.41,0-11.615-0.052-11.615-2.814
			c0-2.761,5.205-7.637,11.615-7.637C333.925,366.587,339.122,371.462,339.122,374.224z" />
        <path style="fill: #30302f" d="M300.278,374.224c0,2.761-5.197,2.814-11.607,2.814s-11.607-0.052-11.607-2.814
			c0-2.761,5.197-7.637,11.607-7.637S300.278,371.462,300.278,374.224z" />
    </g>
    <path style="fill: #1a1919" d="M277.199,124.5l-10.443,106.02c-0.928,3.764-21.422,0.703-21.422-3.772l19.865-121.533L277.199,124.5
		z" />
    <path style="fill: #353535" d="M259.347,113.421l-13.8,111.603c0,0,8.127-0.262,19.109,3.45L277.199,124.5l5.714-4.756l3.933-22.391
		C265.091,94.933,261.349,103.52,259.347,113.421z" />
    <path style="fill: #1a1919" d="M338.901,124.5l10.443,106.02c0.928,3.764,21.429,0.703,21.429-3.772l-19.873-121.533L338.901,124.5z
		" />
    <path style="fill: #353535" d="M356.764,113.421l13.792,111.603c0,0-8.127-0.262-19.109,3.45L338.905,124.5l-5.714-4.756
		l-3.925-22.391C351.013,94.933,354.755,103.52,356.764,113.421z" />
    <path style="fill: #ece6d5"
        d="M209.432,198.079c0-0.842-0.037-1.658-0.086-2.477l14.2-65.16c0-11.585-7.207-20.973-18.44-20.973
		c0,0-17.811,7.865-24.569,7.865c-6.758,0-24.561-7.865-24.561-7.865c-11.233,0-18.44,9.392-18.44,20.973l14.2,65.16
		c-0.06,0.819-0.086,1.639-0.086,2.477c0,0-72.074,176.152-40.408,176.152H249.85C281.502,374.231,209.432,198.079,209.432,198.079z" />
    <path style="fill: #dbd3bb" d="M207.172,374.261c0,2.728-4.756,2.776-10.634,2.776c-5.882,0-10.642-0.052-10.642-2.776
		c0-2.732,4.756-7.543,10.642-7.543C202.416,366.718,207.172,371.53,207.172,374.261z" />
    <g>
        <path style="fill: #e4ded0" d="M181.346,198.79h-29.987c-4.838,11.929-70.641,175.445-40.123,175.445h54.724
			C196.474,374.231,186.176,210.715,181.346,198.79z" />
        <path style="fill: #e4ded0" d="M180.534,117.331c-6.761,0-24.561-7.865-24.561-7.865c-11.233,0-18.44,9.392-18.44,20.973
			l13.512,62.001h30.63C181.675,192.444,187.295,117.331,180.534,117.331z" />
    </g>
    <g>
        <path style="fill: #dbd3bb"
            d="M209.432,198.079c0-0.842-0.037-1.658-0.086-2.477l0.688-3.158h-58.989l0.688,3.158
			c-0.06,0.819-0.086,1.639-0.086,2.477c0,0-0.109,0.262-0.284,0.707h58.357C209.54,198.341,209.432,198.079,209.432,198.079z" />
        <path style="fill: #dbd3bb" d="M171.568,374.261c0,2.728-4.763,2.776-10.634,2.776c-5.875,0-10.649-0.052-10.649-2.776
			c0-2.732,4.771-7.543,10.649-7.543C166.801,366.718,171.568,371.53,171.568,374.261z" />
    </g>
</svg>