<svg height="1em" width="1em" version="1.1" id="Layer_1" xmlns="http://www.w3.org/2000/svg"
	xmlns:xlink="http://www.w3.org/1999/xlink" viewBox="0 0 473.972 473.972" xml:space="preserve">
	<path style="fill:#E84849;" d="M0,236.988C0,106.094,106.101,0,236.992,0c130.879,0,236.981,106.094,236.981,236.988
	c0,130.883-106.101,236.984-236.981,236.984C106.105,473.972,0,367.871,0,236.988z" />
	<path style="fill:#DDDFE0;" d="M179.859,63.771c0,44.332,0.984,197.935,58.495,197.935s58.495-153.607,58.495-197.935
	C296.849,45.878,179.859,43.397,179.859,63.771z" />
	<ellipse style="fill:#CECFD0;" cx="237.598" cy="414.77" rx="48.299" ry="20.149" />
	<ellipse style="fill:#D7D7D7;" cx="237.598" cy="412.974" rx="48.299" ry="18.335" />
	<g>
		<path style="fill:#E3E4E5;" d="M251.267,411.683c0,0-9.28-70.203-9.28-93.211s3.255-51.423,3.255-51.423h-15.15
		c0,0,3.252,31.042,3.252,51.423c0,20.378-9.28,93.211-9.28,93.211s4.475,5.167,13.773,5.167
		C247.136,416.851,251.267,411.683,251.267,411.683z" />
		<polygon style="fill:#E3E4E5;" points="252.932,257.456 223.548,257.456 230.481,267.734 244.921,267.734 	" />
	</g>
	<path style="fill:#DFE0E1;"
		d="M295.143,65.417c0,43.038-113.577,43.038-113.577,0C181.565,45.638,295.143,48.048,295.143,65.417z" />
	<path id="SVGCleanerId_0" style="fill:#E8EAEB;" d="M295.143,65.417c0,43.038-0.958,194.227-56.789,194.227
	s-56.789-151.19-56.789-194.227c0,0,13.309,7.083,58.559,7.083C285.384,72.5,295.143,65.417,295.143,65.417z" />
	<g>
		<path id="SVGCleanerId_0_1_" style="fill:#E8EAEB;" d="M295.143,65.417c0,43.038-0.958,194.227-56.789,194.227
		s-56.789-151.19-56.789-194.227c0,0,13.309,7.083,58.559,7.083C285.384,72.5,295.143,65.417,295.143,65.417z" />
	</g>
	<g>
		<path style="fill:#F1E4C8;" d="M292.258,100.137c-3.117,46.783-3.353,56.441-9.186,90.902
		c-5.298,31.289-21.571,64.901-44.703,64.901c-23.06,0-37.451-29.53-44.677-60.718c-7.558-32.583-8.367-65.036-9.126-94.595
		c0,0,33.204-7.749,55.056-6.986C261.474,94.408,292.258,100.137,292.258,100.137z" />
		<path style="fill:#F1E4C8;" d="M221.516,100.137c-0.138,2.077-0.393,4.075-0.397,6.013
		C221.25,104.193,221.378,102.247,221.516,100.137z" />
		<path style="fill:#F1E4C8;" d="M221.119,106.154c-0.004,0.022-0.004,0.052-0.004,0.075c0,0,0,0,0-0.004
		C221.116,106.199,221.119,106.176,221.119,106.154z" />
	</g>
	<path style="fill:#D3B95F;" d="M292.258,100.137c-3.117,46.783-3.353,56.441-9.186,90.902
	c-5.298,31.289-21.571,64.901-44.703,64.901c-23.06,0-37.451-29.53-44.677-60.718c-7.558-32.583-8.367-65.036-9.126-94.595
	c0,0,16.737,10.541,55.056,10.541C275.087,111.171,292.258,100.137,292.258,100.137z" />
	<path style="fill:#F1E4C8;" d="M221.116,106.236c0-0.004,0-0.004,0-0.011c0-0.022,0-0.052,0.004-0.075
	c0-0.022,0.004-0.045,0.004-0.064C221.119,106.139,221.116,106.187,221.116,106.236z" />
	<path style="fill:#D3B95F;" d="M221.516,100.137c-0.138,2.054-0.385,4.026-0.393,5.953
	C221.25,104.148,221.378,102.225,221.516,100.137z" />
	<path style="fill:#E8CC7C;"
		d="M257.459,247.622c-5.654,5.209-12.052,8.318-19.09,8.318c-23.06,0-37.451-29.53-44.677-60.718
	c-7.558-32.583-8.367-65.036-9.126-94.595c0,0,16.737,10.541,55.056,10.541c8.868,0,16.591-0.692,23.188-1.721L257.459,247.622z" />
	<path style="fill:#EADD97;" d="M238.369,255.94c-23.06,0-37.451-29.53-44.677-60.718c-7.558-32.583-8.367-65.036-9.126-94.595
	c0,0,16.737,10.541,55.056,10.541L238.369,255.94z" />
	<path style="fill:#ECDAAA;" d="M238.369,255.94c-2.885,0-5.631-0.46-8.243-1.328l-7.158-144.155
	c5.021,0.445,10.563,0.711,16.651,0.711L238.369,255.94z" />
	<g style="opacity:0.45;">
		<ellipse style="fill:#F1E4C8;" cx="202.65" cy="126.76" rx="4.947" ry="5.515" />
		<ellipse style="fill:#F1E4C8;" cx="229.254" cy="146.336" rx="4.943" ry="5.515" />
		<ellipse style="fill:#F1E4C8;" cx="259.3" cy="127.89" rx="4.947" ry="5.512" />
		<ellipse style="fill:#F1E4C8;" cx="204.147" cy="172.192" rx="4.943" ry="5.519" />
		<ellipse style="fill:#F1E4C8;" cx="207.963" cy="215.761" rx="4.947" ry="5.515" />
		<ellipse style="fill:#F1E4C8;" cx="233.258" cy="191.986" rx="4.943" ry="5.515" />
		<ellipse style="fill:#F1E4C8;" cx="258.178" cy="169.535" rx="4.943" ry="5.512" />
		<ellipse style="fill:#F1E4C8;" cx="281.152" cy="146.336" rx="4.947" ry="5.515" />
		<ellipse style="fill:#F1E4C8;" cx="235.727" cy="237.448" rx="4.947" ry="5.512" />
		<ellipse style="fill:#F1E4C8;" cx="259.113" cy="212.91" rx="4.943" ry="5.512" />
	</g>
	<path style="fill:#F1E4C8;" d="M292.258,100.137c0,0-30.787-5.729-52.639-6.496c-21.852-0.763-55.056,6.986-55.056,6.986
	s16.737,10.541,55.056,10.541C275.087,111.171,292.258,100.137,292.258,100.137z" />
	<g>
		<path style="fill:#D3B95F;" d="M242.926,255.472c-0.236,0.052-0.49,0.082-0.733,0.123
		C242.436,255.555,242.687,255.525,242.926,255.472z" />
		<path style="fill:#D3B95F;" d="M247.136,254.245c-0.225,0.082-0.445,0.18-0.67,0.258
		C246.691,254.425,246.911,254.327,247.136,254.245z" />
		<path style="fill:#D3B95F;" d="M254.683,249.931c-0.232,0.176-0.468,0.352-0.703,0.52
		C254.215,250.283,254.455,250.107,254.683,249.931z" />
		<path style="fill:#D3B95F;" d="M292.258,100.137c-0.138,2.024-0.378,3.97-0.389,5.867
		C291.996,104.088,292.119,102.191,292.258,100.137z" />
		<path style="fill:#D3B95F;" d="M250.702,252.584c-0.097,0.06-0.198,0.097-0.296,0.153
		C250.503,252.685,250.604,252.644,250.702,252.584z" />
	</g>
	<g>
		<path style="fill:#DDC272;" d="M242.193,255.596c-1.253,0.206-2.522,0.344-3.82,0.344
		C239.671,255.94,240.939,255.802,242.193,255.596z" />
		<path style="fill:#DDC272;" d="M253.979,250.451c-1.066,0.782-2.159,1.512-3.278,2.133
		C251.82,251.963,252.913,251.233,253.979,250.451z" />
		<path style="fill:#DDC272;" d="M246.466,254.503c-1.16,0.412-2.335,0.733-3.54,0.969
		C244.131,255.237,245.31,254.915,246.466,254.503z" />
		<path style="fill:#DDC272;" d="M257.459,247.622v-0.041c-0.905,0.838-1.826,1.628-2.773,2.35
		C255.626,249.209,256.558,248.457,257.459,247.622z" />
		<path style="fill:#DDC272;" d="M250.406,252.737c-1.066,0.576-2.159,1.074-3.27,1.504
		C248.247,253.815,249.34,253.317,250.406,252.737z" />
	</g>
	<g>
		<path style="fill:#ECDAAA;" d="M231.649,110.999c2.556,0.101,5.19,0.172,7.97,0.172C236.838,111.171,234.204,111.1,231.649,110.999
		z" />
		<path style="fill:#ECDAAA;" d="M224.244,110.543c1.62,0.131,3.3,0.236,5.029,0.333C227.548,110.779,225.86,110.674,224.244,110.543
		z" />
	</g>
	<path style="fill:#EADD97;" d="M291.854,106.247c0-0.004,0.004-0.007,0.004-0.011c0-0.049,0.004-0.097,0.007-0.146
	c0-0.03,0.007-0.06,0.007-0.082C291.865,106.083,291.861,106.169,291.854,106.247z" />
	<path style="fill:#F1D069;"
		d="M263.064,109.405l-0.254,0.045l-0.292,7.521c15.431-2.155,29.287-5.751,29.339-10.72
	c0.007-0.079,0.011-0.165,0.019-0.239c0.011-1.901,0.247-3.843,0.389-5.867C292.258,100.137,282.686,106.288,263.064,109.405z" />
	<path style="fill:#F3D183;" d="M262.514,116.967l0.292-7.521c-6.6,1.029-14.32,1.721-23.188,1.721l-0.067,7.933
	C246.574,118.771,254.728,118.049,262.514,116.967z" />
	<path style="fill:#EADD97;" d="M229.269,110.872c0.793,0.045,1.564,0.086,2.38,0.123
	C230.833,110.962,230.062,110.917,229.269,110.872z" />
	<path style="fill:#FFEEA5;"
		d="M223.383,118.767l-0.415-8.31c0.4,0.037,0.864,0.052,1.276,0.082
	c-27.423-2.249-39.678-9.912-39.678-9.912c0.041,1.478,0.12,2.963,0.12,4.456C184.682,112.174,204.764,117.259,223.383,118.767z" />
	<path style="fill:#FFEBBF;" d="M223.383,118.767c5.343,0.434,10.582,0.587,15.177,0.389c0.322-0.011,0.67-0.034,0.995-0.052
	l0.067-7.933c-2.78,0-5.414-0.071-7.97-0.172c-0.816-0.037-1.587-0.079-2.38-0.123c-1.729-0.094-3.409-0.202-5.029-0.333
	c-0.408-0.034-0.872-0.049-1.276-0.082L223.383,118.767z" />
</svg>