<svg height="1em" width="1em" version="1.1" id="Layer_1" xmlns="http://www.w3.org/2000/svg"
	xmlns:xlink="http://www.w3.org/1999/xlink" viewBox="0 0 473.935 473.935" xml:space="preserve">
	<circle style="fill:#357180;" cx="236.967" cy="236.967" r="236.967" />
	<g>
		<polygon style="fill:#F5DE57;" points="310.217,352.282 317.771,367.593 334.669,370.048 322.441,381.965 325.33,398.789 
		310.217,390.845 295.104,398.789 297.988,381.965 285.76,370.048 302.658,367.593 	" />
		<polygon style="fill:#F5DE57;" points="87.58,245.641 95.135,260.952 112.033,263.407 99.805,275.324 102.693,292.148 
		87.58,284.204 72.467,292.148 75.352,275.324 63.124,263.407 80.022,260.952 	" />
		<polygon style="fill:#F5DE57;" points="305.539,53.874 313.094,69.186 329.992,71.64 317.764,83.558 320.653,100.381 
		305.539,92.437 290.426,100.381 293.311,83.558 281.083,71.64 297.981,69.186 	" />
	</g>
	<polygon style="fill:#FBF3CE;" points="389.992,139.943 387.874,151.599 396.27,159.95 384.532,161.537 379.182,172.104 
	374.044,161.436 362.336,159.61 370.901,151.423 369.015,139.73 379.447,145.35 " />
	<polygon style="fill:#F5DE57;" points="219.505,210.547 217.768,220.133 224.672,227.011 215.018,228.32 210.61,237.009 
	206.382,228.23 196.754,226.726 203.8,219.995 202.244,210.371 210.831,214.988 " />
	<polygon style="fill:#F8E69B;" points="263.508,194.36 261.768,203.946 268.675,210.824 259.022,212.133 254.614,220.822 
	250.382,212.043 240.758,210.539 247.804,203.808 246.247,194.184 254.834,198.801 " />
	<g>
		<polygon style="fill:#FBF3CE;" points="253.48,240.144 251.744,249.734 258.647,256.608 248.994,257.918 244.589,266.606 
		240.357,257.832 230.73,256.324 237.776,249.592 236.219,239.968 244.806,244.589 	" />
		<polygon style="fill:#FBF3CE;" points="111.228,137.137 109.111,148.792 117.507,157.144 105.769,158.73 100.418,169.297 
		95.281,158.629 83.573,156.803 92.138,148.616 90.252,136.923 100.684,142.543 	" />
	</g>
	<polygon style="fill:#F5DE57;" points="397.475,263.422 395.357,275.078 403.754,283.429 392.016,285.016 386.665,295.583 
	381.528,284.915 369.82,283.089 378.385,274.902 376.499,263.209 386.931,268.829 " />
	<polygon style="fill:#FBF3CE;" points="187.935,365.386 185.817,377.041 194.214,385.393 182.476,386.979 177.125,397.546 
	171.988,386.878 160.279,385.052 168.844,376.865 166.959,365.172 177.391,370.792 " />
	<g>
		<path style="fill:#F9E478;" d="M198.532,193.233c0,0-23.278-38.544-45.975-59.76c-22.698-21.208-58.028-39.678-58.028-39.678
		C150.049,91.921,196.609,136.441,198.532,193.233z" />
		<path style="fill:#F9E478;" d="M209.45,276.971c0,0-39.749,21.164-62.155,42.686c-22.398,21.523-42.754,55.798-42.754,55.798
		C105.661,319.912,152.628,275.822,209.45,276.971z" />
		<path style="fill:#F9E478;" d="M182.697,234.21c0,0-42.293-15.472-73.272-17.788s-70.091,5.407-70.091,5.407
		C81.44,185.589,145.619,191.134,182.697,234.21z" />
		<path style="fill:#F9E478;" d="M275.231,193.585c0,0,23.072-38.668,45.661-60c22.582-21.332,57.814-39.992,57.814-39.992
		C323.171,92.014,276.847,136.785,275.231,193.585z" />
		<path style="fill:#F9E478;" d="M240.866,176.328c0,0-1.848-44.98,5.381-75.202s26.499-65.122,26.499-65.122
		C225.405,65.085,211.13,127.906,240.866,176.328z" />
		<path style="fill:#F9E478;" d="M264.758,277.379c0,0,39.858,20.954,62.383,42.35c22.518,21.407,43.046,55.581,43.046,55.581
		C368.776,319.773,321.573,275.931,264.758,277.379z" />
		<path style="fill:#F9E478;" d="M236.526,294.943c0,0,6.769,44.52,2.9,75.348c-3.88,30.817-19.229,67.614-19.229,67.614
		C264.084,403.832,271.396,339.829,236.526,294.943z" />
		<path style="fill:#F9E478;" d="M291.287,234.472c0,0,42.204-15.689,73.178-18.166c30.963-2.492,70.114,5.029,70.114,5.029
		C392.278,185.32,328.129,191.209,291.287,234.472z" />
	</g>
	<g>
		<path style="fill:#F0C418;" d="M215.108,178.786c0,0-0.767-21.47-5.313-35.584c-4.539-14.107-14.99-30.013-14.99-30.013
		C218.389,125.29,227.478,154.652,215.108,178.786z" />
		<path style="fill:#F0C418;" d="M181.548,211.52c0,0-12.513-17.467-24.093-26.72c-11.585-9.246-29.077-16.73-29.077-16.73
		C154.712,165.118,178.521,184.571,181.548,211.52z" />
		<path style="fill:#F0C418;" d="M196.769,264.559c0,0-21.193-3.51-35.929-1.848c-14.728,1.658-32.389,8.748-32.389,8.748
		C144.983,250.733,175.576,247.65,196.769,264.559z" />
		<path style="fill:#F0C418;" d="M221.503,294.583c0,0-14.608,15.742-21.362,28.946c-6.746,13.197-10.582,31.843-10.582,31.843
		C181.402,330.145,195.703,302.928,221.503,294.583z" />
		<path style="fill:#F0C418;" d="M259.25,179.516c0,0,0.176-21.485,4.326-35.723c4.15-14.223,14.155-30.417,14.155-30.417
		C254.49,126.128,246.217,155.733,259.25,179.516z" />
		<path style="fill:#F0C418;" d="M292.316,211.781c0,0,12.408-17.542,23.947-26.851c11.532-9.302,28.991-16.883,28.991-16.883
		C318.898,165.241,295.197,184.822,292.316,211.781z" />
		<path style="fill:#F0C418;" d="M277.371,264.904c0,0,21.179-3.618,35.921-2.039c14.735,1.579,32.434,8.572,32.434,8.572
		C329.087,250.808,298.479,247.882,277.371,264.904z" />
		<path style="fill:#F0C418;" d="M256.799,292.047c0,0,10.911,18.503,14.675,32.849c3.764,14.331,3.521,33.369,3.521,33.369
		C288.365,335.369,280.223,305.719,256.799,292.047z" />
	</g>
</svg>